<?xml version="1.0" encoding="utf-8"?>
<!-- Generator: Adobe Illustrator 18.1.1, SVG Export Plug-In . SVG Version: 6.00 Build 0)  -->
<svg version="1.1" id="Capa_1" xmlns="http://www.w3.org/2000/svg" xmlns:xlink="http://www.w3.org/1999/xlink" x="0px" y="0px"
	 viewBox="3.8 179.5 608.5 612" enable-background="new 3.8 179.5 608.5 612" xml:space="preserve">
<g>
	<g id="Search__x28_and_thou_shall_find_x29_">
		<g>
			<path fill="#4E2A84" d="M601.1,726.1L417.8,541.7c26.5-37.5,42.3-83.2,42.3-132.7c0-126.8-102.2-229.5-228.2-229.5
				C105.9,179.5,3.8,282.2,3.8,409S106,638.5,232,638.5c49.2,0,94.8-15.8,132-42.6l183.3,184.3c7.5,7.5,17.2,11.2,26.9,11.2
				s19.5-3.8,26.9-11.2C616,765.3,616,741.1,601.1,726.1z M355.9,497.4L341,518.6l-21.1,15c-26,18.6-56.4,28.3-87.9,28.3
				c-83.9,0-152.1-68.6-152.1-153c0-84.3,68.2-153,152.1-153s152.1,68.6,152.1,153C384.1,440.7,374.4,471.3,355.9,497.4z"/>
		</g>
	</g>
</g>
</svg>
